<svg width="20" height="20" viewBox="0 0 20 20" fill="none" xmlns="http://www.w3.org/2000/svg">
<path d="M11.6406 14.7344C13.4635 12.9115 13.4635 9.88546 11.6406 8.02608C11.1666 7.58858 10.6562 7.26046 10.1094 7.00525C9.8906 6.93233 9.59894 7.04171 9.52602 7.29692C9.48956 7.47921 9.4531 7.6615 9.41665 7.84379C9.41665 8.02608 9.52602 8.20837 9.70831 8.28129C10.0729 8.42712 10.401 8.68233 10.6927 8.974C12.0416 10.2865 12.0416 12.474 10.7291 13.7865L10.6927 13.823L7.81248 16.7032C6.46352 18.0521 4.31248 18.0521 2.96352 16.7032C1.61456 15.3542 1.61456 13.2032 2.96352 11.8542C2.96352 11.8542 5.11456 9.70317 5.6979 9.11983C5.80727 9.01046 5.84373 8.86462 5.84373 8.75525C5.80727 8.57296 5.80727 8.39067 5.80727 8.20837C5.77081 7.84379 5.33331 7.6615 5.04165 7.91671C5.00519 7.95317 4.96873 7.98962 4.93227 8.02608L2.05206 10.9427C0.192688 12.7657 0.192688 15.7917 2.05206 17.6146C3.87498 19.474 6.90102 19.474 8.72394 17.6146L11.6406 14.7344ZM8.3229 11.3438C8.79685 11.7813 9.30727 12.1094 9.85415 12.3646C10.0729 12.4375 10.3646 12.3282 10.4375 12.073C10.4739 11.8907 10.5104 11.7084 10.5469 11.5261C10.5469 11.3438 10.4375 11.1615 10.2552 11.0886C9.8906 10.9427 9.56248 10.6875 9.27081 10.3959C7.92185 9.08337 7.92185 6.89587 9.23435 5.58337L9.27081 5.54692L12.151 2.66671C13.5 1.31775 15.651 1.31775 17 2.66671C18.3489 4.01567 18.3489 6.16671 17 7.51567C17 7.51567 14.8489 9.66671 14.2656 10.25C14.1562 10.3594 14.1198 10.5052 14.1198 10.6146C14.1562 10.7969 14.1562 10.9792 14.1562 11.1615C14.1927 11.5261 14.6302 11.7084 14.9219 11.4532C14.9583 11.4167 14.9948 11.3802 15.0312 11.3438L17.9114 8.42712C19.7708 6.60421 19.7708 3.57817 17.9114 1.75525C16.0885 -0.104126 13.0625 -0.104126 11.2396 1.75525L8.3229 4.63546C6.49998 6.45837 6.49998 9.48442 8.3229 11.3438Z" fill="#0D0D0D"/>
</svg>
