<svg width="20" height="19" viewBox="0 0 20 19" fill="none" xmlns="http://www.w3.org/2000/svg">
<path d="M18.6407 2.4115L17.2553 1.02608C16.8178 0.588582 16.198 0.333374 15.6147 0.333374C15.0314 0.333374 14.4116 0.588582 13.9741 1.02608L1.10429 13.8959L0.66679 18.0521C0.593874 18.5625 0.994915 19 1.50533 19C1.54179 19 1.57825 19 1.61471 19L5.77096 18.5625L18.6407 5.69275C19.5522 4.78129 19.5522 3.32296 18.6407 2.4115ZM5.26054 17.4323L1.86992 17.7969L2.2345 14.4063L11.8595 4.78129L14.8855 7.80733L5.26054 17.4323ZM17.8022 4.89067L15.6876 7.00525L12.6616 3.97921L14.7762 1.86462C14.9949 1.64587 15.2866 1.50004 15.6147 1.50004C15.9428 1.50004 16.2345 1.64587 16.4532 1.86462L17.8022 3.21358C18.2762 3.68754 18.2762 4.41671 17.8022 4.89067Z" fill="#0D0D0D"/>
</svg>
