<svg width="12" height="13" viewBox="0 0 12 13" fill="none" xmlns="http://www.w3.org/2000/svg">
<path d="M7.20329 6.66659L10.9585 2.94784L11.7241 2.18221C11.8335 2.07284 11.8335 1.89054 11.7241 1.74471L10.922 0.942627C10.7762 0.833252 10.5939 0.833252 10.4845 0.942627L6.00016 5.46346L1.47933 0.942627C1.36995 0.833252 1.18766 0.833252 1.04183 0.942627L0.239746 1.74471C0.130371 1.89054 0.130371 2.07284 0.239746 2.18221L4.76058 6.66659L0.239746 11.1874C0.130371 11.2968 0.130371 11.4791 0.239746 11.6249L1.04183 12.427C1.18766 12.5364 1.36995 12.5364 1.47933 12.427L6.00016 7.90617L9.71891 11.6614L10.4845 12.427C10.5939 12.5364 10.7762 12.5364 10.922 12.427L11.7241 11.6249C11.8335 11.4791 11.8335 11.2968 11.7241 11.1874L7.20329 6.66659Z" fill="#0D0D0D"/>
</svg>
