<svg width="18" height="19" viewBox="0 0 18 19" fill="none" xmlns="http://www.w3.org/2000/svg">
<path d="M5.09892 19C6.30204 19 7.50517 18.5625 8.41663 17.6511L16.3645 9.70317C16.5104 9.52087 16.5104 9.26567 16.3645 9.08337L16.1458 8.86462C15.9635 8.71879 15.7083 8.71879 15.526 8.86462L7.57808 16.8125C6.19267 18.198 3.96871 18.198 2.58329 16.8125C1.19788 15.4271 1.19788 13.2032 2.58329 11.8177L12.1354 2.26567C13.1198 1.28129 14.7239 1.28129 15.6718 2.26567C16.6562 3.21358 16.6562 4.81775 15.6718 5.80212L7.57808 13.9323C6.99475 14.4792 6.04683 14.4792 5.4635 13.9323C4.91663 13.349 4.91663 12.4011 5.4635 11.8177L11.6979 5.61983C11.8437 5.43754 11.8437 5.18233 11.6979 5.00004L11.4791 4.78129C11.2968 4.63546 11.0416 4.63546 10.8593 4.78129L4.66142 11.0157C3.60413 12.0365 3.60413 13.7136 4.66142 14.7344C5.68225 15.7917 7.35933 15.7917 8.38017 14.7344L16.5104 6.64067C17.9323 5.18233 17.9323 2.849 16.5104 1.42712C15.0885 0.00524905 12.7552 0.00524905 11.2968 1.42712L1.74475 10.9792C-0.0781657 12.8021 -0.0781657 15.7917 1.74475 17.6511C2.65621 18.5625 3.89579 19 5.09892 19Z" fill="#0D0D0D"/>
</svg>
