<svg width="118" height="32" viewBox="0 0 118 32" fill="none" xmlns="http://www.w3.org/2000/svg">
<path d="M4.94105 9.58045V16.0326H5.68871C9.81708 16.0326 14.6606 15.3483 16.7736 12.8717V20.2688C14.6931 18.053 9.84959 17.336 5.68871 17.336H4.94105V24.4725C4.94105 26.8839 5.1686 28.9369 6.17631 31.5112H0C0.975207 28.9369 1.17025 26.8839 1.17025 24.4725V9.58045C1.17025 7.16904 0.975207 5.11609 0 2.54175H18.854L18.6915 9.4501C16.5785 5.83299 11.1824 3.84521 5.88375 3.84521H5.13609C4.97355 5.83299 4.94105 7.59266 4.94105 9.58045Z" fill="#0D0D0D"/>
<path d="M33.157 31.5438C32.7669 30.8595 32.4743 29.6212 32.4093 28.5133C30.6215 30.9573 28.3785 31.9023 26.168 31.9023C22.9173 31.9023 20.9994 30.11 20.9994 25.6457V18.8351C20.9994 15.9023 20.9669 12.774 19.9917 10.721C21.552 10.1996 23.2099 9.54792 24.6727 8.89619V24.831C24.6727 26.0693 24.6727 29.1976 28.1509 29.1976C29.3537 29.1976 30.784 28.8392 32.3443 27.1772V18.8351C32.3443 15.9675 32.3118 12.8717 31.3366 10.8188C32.8969 10.2974 34.4898 9.64568 36.0176 8.99395V24.0815C36.0176 27.3728 36.1151 28.9369 37.2204 31.5764H33.157V31.5438ZM22.4297 4.20372C22.4297 2.73733 23.5024 1.56421 24.9978 1.56421C26.5256 1.56421 27.6308 2.73733 27.6308 4.20372C27.6308 5.63753 26.5256 6.77806 24.9978 6.77806C23.5024 6.77806 22.4297 5.60494 22.4297 4.20372ZM29.4187 4.20372C29.4187 2.73733 30.4914 1.56421 31.9867 1.56421C33.5146 1.56421 34.6198 2.73733 34.6198 4.20372C34.6198 5.63753 33.5146 6.77806 31.9867 6.77806C30.4914 6.77806 29.4187 5.60494 29.4187 4.20372Z" fill="#0D0D0D"/>
<path d="M40.2759 24.4725V9.9389C40.2759 7.00611 40.1783 3.8778 39.2031 1.82485C40.861 1.43381 42.3238 0.847251 43.9166 0V24.4725C43.9166 26.8839 44.0467 28.9369 44.9894 31.5112H39.2031C40.1458 28.9369 40.2759 26.8839 40.2759 24.4725Z" fill="#0D0D0D"/>
<path d="M64.656 31.5438H60.4301C59.975 29.4583 59.845 26.9491 59.845 24.6354V15.9674C59.845 13.165 58.9023 11.6008 56.6268 11.6008C55.3916 11.6008 53.7662 12.057 52.0109 14.1752V24.4725C52.0109 26.8839 52.1409 28.9369 53.0836 31.5112H47.2974C48.2401 28.9369 48.3701 26.8839 48.3701 24.4725V9.9389C48.3701 7.00611 48.2726 3.8778 47.2974 1.82485C48.9552 1.43381 50.418 0.847251 52.0109 0V12.9369C53.9288 9.87373 56.2693 8.86355 58.5122 8.86355C61.4379 8.86355 63.4858 10.6558 63.4858 15.1202V24.4725C63.4858 26.8839 63.7133 28.9369 64.656 31.5438Z" fill="#0D0D0D"/>
<path d="M79.252 31.5439C78.862 30.8596 78.5369 29.5235 78.4394 28.5133C76.9766 30.7944 74.441 31.9023 72.003 31.9023C68.7848 31.9023 66.6719 29.9797 66.6719 27.0795C66.6719 22.8433 71.2553 21.5072 73.6283 20.66C76.3264 19.6824 78.4719 18.5744 78.4719 18.0205V17.5317C78.4719 14.2404 77.9843 10.0693 74.246 10.0693C72.4256 10.0693 71.1903 11.0469 71.1903 13.2302C71.1903 14.2404 71.4504 15.609 72.133 17.2058L67.5821 16.9777V15.5439C67.5821 12.4156 69.5325 8.76587 75.1562 8.76587C82.1452 8.76587 82.1452 14.3708 82.1452 16.9777V24.0164C82.1452 27.3076 82.2427 28.8718 83.3154 31.5113H79.252V31.5439ZM78.4394 27.438V22.4196C78.4394 21.7353 78.4394 21.5398 76.6515 21.5398C71.9055 21.5398 70.2801 22.8433 70.2801 25.6783C70.2801 27.6987 71.3854 29.1651 73.9209 29.1651C75.6763 29.1651 77.2041 28.5133 78.4394 27.438Z" fill="#0D0D0D"/>
<path d="M98.0408 31.5438C97.6507 30.8595 97.3581 29.6212 97.2931 28.5132C95.5052 30.9572 93.2948 31.9022 91.0518 31.9022C87.8011 31.9022 85.8832 30.11 85.8832 25.6456V18.835C85.8832 15.9022 85.8507 12.7739 84.8755 10.721C86.4358 10.1996 88.0937 9.54785 89.5565 8.89612V24.8309C89.5565 26.0692 89.5565 29.1975 93.0347 29.1975C94.2375 29.1975 95.6678 28.8391 97.2281 27.1772V18.835C97.2281 15.9674 97.1956 12.8717 96.2204 10.8187C97.7807 10.2973 99.3736 9.64561 100.901 8.99388V24.0815C100.901 27.3727 100.999 28.9369 102.104 31.5764H98.0408V31.5438Z" fill="#0D0D0D"/>
<path d="M106.98 13.3932C106.98 15.7068 108.41 16.7496 110.978 18.0205L113.872 19.4868C115.692 20.4319 118 21.8657 118 25.3198C118 29.6864 114.392 32.0001 110.913 32.0001C107.37 32.0001 104.51 29.8168 103.177 26.6885L106.688 24.3097C107.565 28.0897 109.613 30.2404 112.344 30.2404C114.132 30.2404 115.594 29.2302 115.594 27.0143C115.594 25.0917 114.262 23.7883 112.246 22.8107L108.475 20.9858C107.045 20.2689 104.054 18.5744 104.054 15.2832C104.054 11.7638 106.72 8.76587 112.636 8.76587C114.099 8.76587 115.984 9.09173 117.187 9.58053L116.472 15.4135C114.749 12.1223 112.831 10.5907 110.166 10.5907C108.248 10.6559 106.98 11.6987 106.98 13.3932Z" fill="#0D0D0D"/>
</svg>
