<svg width="20" height="19" viewBox="0 0 20 19" fill="none" xmlns="http://www.w3.org/2000/svg">
<path d="M1.39575 1.20818C1.14054 1.20818 0.958252 1.42693 0.958252 1.64568V6.89568C0.958252 7.15089 1.14054 7.33318 1.39575 7.33318H6.64575C6.8645 7.33318 7.08325 7.15089 7.08325 6.89568V6.5311C7.08325 6.31235 6.8645 6.0936 6.64575 6.0936H3.03638C4.34888 3.61443 6.97388 1.86443 9.99992 1.86443C14.302 1.86443 17.802 5.40089 17.802 9.66651C17.802 14.0051 14.2655 17.4686 9.99992 17.4686C7.95825 17.4686 6.13533 16.7394 4.74992 15.4998C4.60408 15.3176 4.31242 15.354 4.16659 15.4998L3.91138 15.7551C3.72909 15.9373 3.72909 16.229 3.91138 16.4113C5.51554 17.8332 7.66658 18.7082 9.99992 18.7082C14.9583 18.7082 19.0051 14.6978 19.0416 9.70297C19.0416 4.74464 14.9947 0.661304 9.99992 0.661304C6.68221 0.624845 3.76554 2.44776 2.19784 5.10922V1.64568C2.19784 1.42693 1.97909 1.20818 1.76034 1.20818H1.39575ZM13.0989 12.729L13.2812 12.4738C13.427 12.2915 13.3905 11.9998 13.1718 11.8905L10.5833 9.95818V4.56235C10.5833 4.3436 10.3645 4.12485 10.1458 4.12485H9.85408C9.59888 4.12485 9.41658 4.3436 9.41658 4.56235V10.578L12.4791 12.8019C12.6978 12.9478 12.953 12.9113 13.0989 12.729Z" fill="#0D0D0D"/>
</svg>
