<svg width="20" height="15" viewBox="0 0 20 15" fill="none" xmlns="http://www.w3.org/2000/svg">
<path d="M6.49984 6.28121C6.49984 5.95308 6.75505 5.69788 7.08317 5.69788H12.3332V2.27079C12.3332 2.01558 12.6248 1.86975 12.8071 2.05204L17.9842 7.26558C18.203 7.48433 18.203 7.84892 17.9842 8.10413L12.8071 13.3177C12.6248 13.5 12.3332 13.3541 12.3332 13.0989V9.67183H7.08317C6.75505 9.67183 6.49984 9.41663 6.49984 9.0885V6.28121ZM5.33317 6.28121V9.0885C5.33317 10.0729 6.0988 10.8385 7.08317 10.8385H11.1665V13.0989C11.1665 14.4114 12.7342 15.0677 13.6457 14.1198L18.7863 8.90621C19.479 8.24996 19.479 7.11975 18.7863 6.42704L13.6457 1.2135C12.7342 0.302043 11.1665 0.958293 11.1665 2.27079V4.53121H7.08317C6.0988 4.53121 5.33317 5.29683 5.33317 6.28121ZM0.666504 2.41663V12.9166C0.666504 13.901 1.43213 14.6666 2.4165 14.6666H7.229C7.44775 14.6666 7.6665 14.4843 7.6665 14.2291V13.9375C7.6665 13.7187 7.44775 13.5 7.229 13.5H2.4165C2.08838 13.5 1.83317 13.2448 1.83317 12.9166V2.41663C1.83317 2.12496 2.08838 1.83329 2.4165 1.83329H7.229C7.44775 1.83329 7.6665 1.651 7.6665 1.39579V1.10413C7.6665 0.885376 7.44775 0.666626 7.229 0.666626H2.4165C1.43213 0.666626 0.666504 1.46871 0.666504 2.41663Z" fill="#0D0D0D"/>
</svg>
