<svg width="20" height="19" viewBox="0 0 20 19" fill="none" xmlns="http://www.w3.org/2000/svg">
<path d="M9.99992 1.79167C14.302 1.79167 17.8749 5.32812 17.8749 9.66667C17.8749 14.0417 14.3385 17.5417 9.99992 17.5417C5.62492 17.5417 2.12492 14.0417 2.12492 9.66667C2.12492 5.32812 5.62492 1.79167 9.99992 1.79167ZM9.99992 0.625C5.00513 0.625 0.958252 4.70833 0.958252 9.66667C0.958252 14.6615 5.00513 18.7083 9.99992 18.7083C14.9583 18.7083 19.0416 14.6615 19.0416 9.66667C19.0416 4.70833 14.9583 0.625 9.99992 0.625ZM8.68742 13.1667C8.43221 13.1667 8.24992 13.3854 8.24992 13.6042V13.8958C8.24992 14.151 8.43221 14.3333 8.68742 14.3333H11.3124C11.5312 14.3333 11.7499 14.151 11.7499 13.8958V13.6042C11.7499 13.3854 11.5312 13.1667 11.3124 13.1667H10.8749V8.0625C10.8749 7.84375 10.6562 7.625 10.4374 7.625H8.68742C8.43221 7.625 8.24992 7.84375 8.24992 8.0625V8.35417C8.24992 8.60938 8.43221 8.79167 8.68742 8.79167H9.12492V13.1667H8.68742ZM9.99992 4.41667C9.34367 4.41667 8.83325 4.96354 8.83325 5.58333C8.83325 6.23958 9.34367 6.75 9.99992 6.75C10.6197 6.75 11.1666 6.23958 11.1666 5.58333C11.1666 4.96354 10.6197 4.41667 9.99992 4.41667Z" fill="#0D0D0D"/>
</svg>
