<svg width="24" height="19" viewBox="0 0 24 19" fill="none" xmlns="http://www.w3.org/2000/svg">
<path d="M10.8333 10.8334C11.3072 10.8334 11.7083 10.323 11.7083 9.66671C11.7083 9.04692 11.3072 8.50004 10.8333 8.50004C10.3228 8.50004 9.95825 9.04692 9.95825 9.66671C9.95825 10.323 10.3228 10.8334 10.8333 10.8334ZM23.3749 17.8334H18.9999V3.83337C18.9999 3.21358 18.453 2.66671 17.8333 2.66671H14.3333V1.57296C14.3333 0.880249 13.7864 0.333374 13.1666 0.333374C13.0572 0.333374 12.9478 0.369832 12.8749 0.406291L5.87492 2.19275C5.32804 2.33858 4.99992 2.81254 4.99992 3.35942V17.8334H0.624919C0.442627 17.8334 0.333252 17.9792 0.333252 18.125V18.7084C0.333252 18.8907 0.442627 19 0.624919 19H23.3749C23.5208 19 23.6666 18.8907 23.6666 18.7084V18.125C23.6666 17.9792 23.5208 17.8334 23.3749 17.8334ZM13.1666 1.57296V17.8334H6.16658V3.32296L13.1666 1.5365V1.57296ZM17.8333 17.8334H14.3333V3.83337H17.8333V17.8334Z" fill="#0D0D0D"/>
</svg>
