<svg width="18" height="17" viewBox="0 0 18 17" fill="none" xmlns="http://www.w3.org/2000/svg">
<path d="M9.25513 16.6875L9.51033 16.4323C9.69263 16.25 9.69263 15.9948 9.51033 15.8125L3.02075 9.28642H16.7291C16.9478 9.28642 17.1666 9.10413 17.1666 8.84892V8.48433C17.1666 8.26558 16.9478 8.04683 16.7291 8.04683H3.02075L9.51033 1.55725C9.69263 1.37496 9.69263 1.11975 9.51033 0.937459L9.25513 0.682251C9.07283 0.499959 8.81763 0.499959 8.63533 0.682251L0.942627 8.37496C0.760335 8.55725 0.760335 8.81246 0.942627 8.99475L8.63533 16.6875C8.81763 16.8698 9.07283 16.8698 9.25513 16.6875Z" fill="white"/>
</svg>
