<svg width="17" height="17" viewBox="0 0 17 17" fill="none" xmlns="http://www.w3.org/2000/svg">
<path d="M15.7865 3.57292L12.7604 0.546875C12.4323 0.21875 11.9948 0 11.5208 0H1.75C0.765625 0 0 0.802083 0 1.75V14.5833C0 15.5677 0.765625 16.3333 1.75 16.3333H14.5833C15.5312 16.3333 16.3333 15.5677 16.3333 14.5833V4.8125C16.3333 4.33854 16.1146 3.90104 15.7865 3.57292ZM10.5 1.16667V4.66667H3.5V1.16667H10.5ZM15.1667 14.5833C15.1667 14.9115 14.875 15.1667 14.5833 15.1667H1.75C1.42188 15.1667 1.16667 14.9115 1.16667 14.5833V1.75C1.16667 1.45833 1.42188 1.16667 1.75 1.16667H2.33333V4.95833C2.33333 5.46875 2.69792 5.83333 3.20833 5.83333H10.7917C11.2656 5.83333 11.6667 5.46875 11.6667 4.95833V1.20312C11.7396 1.23958 11.849 1.27604 11.9219 1.34896L14.9844 4.41146C15.0938 4.52083 15.1667 4.66667 15.1667 4.8125V14.5833ZM8.16667 7.29167C6.38021 7.29167 4.95833 8.75 4.95833 10.5C4.95833 12.2865 6.38021 13.7083 8.16667 13.7083C9.91667 13.7083 11.375 12.2865 11.375 10.5C11.375 8.75 9.91667 7.29167 8.16667 7.29167ZM8.16667 12.5417C7.03646 12.5417 6.125 11.6302 6.125 10.5C6.125 9.40625 7.03646 8.45833 8.16667 8.45833C9.26042 8.45833 10.2083 9.40625 10.2083 10.5C10.2083 11.6302 9.26042 12.5417 8.16667 12.5417Z" fill="#0D0D0D"/>
</svg>
