<svg width="17" height="19" viewBox="0 0 17 19" fill="none" xmlns="http://www.w3.org/2000/svg">
<path d="M13.4998 12C12.4425 12 11.4946 12.474 10.8748 13.2032L7.37484 11.0157C7.73942 10.1771 7.73942 9.19275 7.37484 8.35421L10.8748 6.16671C11.4946 6.89587 12.4425 7.33337 13.4998 7.33337C15.4321 7.33337 16.9998 5.76567 16.9998 3.83337C16.9998 1.90108 15.4321 0.333374 13.4998 0.333374C11.5675 0.333374 9.99984 1.90108 9.99984 3.83337C9.99984 4.30733 10.0728 4.78129 10.255 5.18233L6.75505 7.36983C6.13525 6.64067 5.18734 6.16671 4.1665 6.16671C2.23421 6.16671 0.666504 7.73442 0.666504 9.66671C0.666504 11.599 2.23421 13.1667 4.1665 13.1667C5.18734 13.1667 6.13525 12.7292 6.75505 12L10.255 14.1875C10.0728 14.5886 9.99984 15.0261 9.99984 15.5C9.99984 17.4323 11.5675 19 13.4998 19C15.4321 19 16.9998 17.4323 16.9998 15.5C16.9998 13.5677 15.4321 12 13.4998 12ZM13.4998 1.50004C14.7759 1.50004 15.8332 2.55733 15.8332 3.83337C15.8332 5.14587 14.7759 6.16671 13.4998 6.16671C12.1873 6.16671 11.1665 5.14587 11.1665 3.83337C11.1665 2.55733 12.1873 1.50004 13.4998 1.50004ZM4.1665 12C2.854 12 1.83317 10.9792 1.83317 9.66671C1.83317 8.39067 2.854 7.33337 4.1665 7.33337C5.44255 7.33337 6.49984 8.39067 6.49984 9.66671C6.49984 10.9792 5.44255 12 4.1665 12ZM13.4998 17.8334C12.1873 17.8334 11.1665 16.8125 11.1665 15.5C11.1665 14.224 12.1873 13.1667 13.4998 13.1667C14.7759 13.1667 15.8332 14.224 15.8332 15.5C15.8332 16.8125 14.7759 17.8334 13.4998 17.8334Z" fill="#0D0D0D"/>
</svg>
